HIERARCHY
ROOT Hips
{
	OFFSET -0.001795 -0.223333 0.028219
	CHANNELS 6 Xposition Yposition Zposition Zrotation Yrotation Xrotation 
	JOINT LeftUpLeg
	{
		OFFSET 0.069520 -0.091406 -0.006815
		CHANNELS 3 Zrotation Yrotation Xrotation
		JOINT LeftLeg
		{
			OFFSET 0.034277 -0.375199 -0.004496
			CHANNELS 3 Zrotation Yrotation Xrotation
			JOINT LeftFoot
			{
				OFFSET -0.013596 -0.397961 -0.043693
				CHANNELS 3 Zrotation Yrotation Xrotation
				JOINT LeftToe
				{
					OFFSET 0.026358 -0.055791 0.119288
					CHANNELS 3 Zrotation Yrotation Xrotation
					End Site
					{
						OFFSET 0.000000 0.000000 0.000000
					}
				}
			}
		}
	}
	JOINT RightUpLeg
	{
		OFFSET -0.067670 -0.090522 -0.004320
		CHANNELS 3 Zrotation Yrotation Xrotation
		JOINT RightLeg
		{
			OFFSET -0.038290 -0.382569 -0.008850
			CHANNELS 3 Zrotation Yrotation Xrotation
			JOINT RightFoot
			{
				OFFSET 0.015774 -0.398415 -0.042312
				CHANNELS 3 Zrotation Yrotation Xrotation
				JOINT RightToe
				{
					OFFSET -0.025372 -0.048144 0.123348
					CHANNELS 3 Zrotation Yrotation Xrotation
					End Site
					{
						OFFSET 0.000000 0.000000 0.000000
					}
				}
			}
		}
	}
	JOINT Spine
	{
		OFFSET -0.002533 0.108963 -0.026696
		CHANNELS 3 Zrotation Yrotation Xrotation
		JOINT Spine1
		{
			OFFSET 0.005487 0.135180 0.001092
			CHANNELS 3 Zrotation Yrotation Xrotation
			JOINT Spine2
			{
				OFFSET 0.001457 0.052922 0.025425
				CHANNELS 3 Zrotation Yrotation Xrotation
				JOINT Neck
				{
					OFFSET -0.002778 0.213870 -0.042857
					CHANNELS 3 Zrotation Yrotation Xrotation
					JOINT Head
					{
						OFFSET 0.005152 0.064970 0.051349
						CHANNELS 3 Zrotation Yrotation Xrotation
						End Site
						{
							OFFSET 0.000000 0.000000 0.000000
						}
					}
				}
				JOINT LeftShoulder
				{
					OFFSET 0.078845 0.121749 -0.034090
					CHANNELS 3 Zrotation Yrotation Xrotation
					JOINT LeftArm
					{
						OFFSET 0.090977 0.030469 -0.008868
						CHANNELS 3 Zrotation Yrotation Xrotation
						JOINT LeftForeArm
						{
							OFFSET 0.259612 -0.012772 -0.027456
							CHANNELS 3 Zrotation Yrotation Xrotation
							JOINT LeftHand
							{
								OFFSET 0.249234 0.008986 -0.001171
								CHANNELS 3 Zrotation Yrotation Xrotation
								End Site
								{
									OFFSET 0.000000 0.000000 0.000000
								}
							}
						}
					}
				}
				JOINT RightShoulder
				{
					OFFSET -0.081759 0.118833 -0.038615
					CHANNELS 3 Zrotation Yrotation Xrotation
					JOINT RightArm
					{
						OFFSET -0.096012 0.032551 -0.009143
						CHANNELS 3 Zrotation Yrotation Xrotation
						JOINT RightForeArm
						{
							OFFSET -0.253742 -0.013329 -0.021401
							CHANNELS 3 Zrotation Yrotation Xrotation
							JOINT RightHand
							{
								OFFSET -0.255298 0.007772 -0.005559
								CHANNELS 3 Zrotation Yrotation Xrotation
								End Site
								{
									OFFSET 0.000000 0.000000 0.000000
								}
							}
						}
					}
				}
			}
		}
	}
}
MOTION
Frames: 15
Frame Time: 0.050000
0.000000 0.967498 0.000000 -1.030600 -0.922808 0.778563 2.634375 0.229188 3.789497 -2.053330 0.318580 -5.613134 12.822822 23.607871 24.875041 0.000000 0.000000 0.000000 0.400419 -0.003580 -0.069735 0.189370 0.041721 1.596534 -9.441459 -21.857907 26.441436 0.000000 0.000000 0.000000 0.317863 -0.153270 3.414236 3.180607 -0.042316 -26.514375 -2.468511 -0.194555 27.927710 1.499117 0.351214 -23.016298 0.000000 0.000000 0.000000 -6.651238 4.147865 -1.955248 -13.288564 -19.109956 -1.269078 21.486694 -9.276908 -1.241031 0.000000 0.000000 0.000000 -0.853795 -2.481956 -0.822354 18.337226 14.998163 -1.215789 -19.329512 14.159659 -1.591948 0.000000 0.000000 0.000000 
0.000229 0.965832 0.001952 -1.417434 -1.170533 1.220998 2.963583 0.223428 3.944546 -2.208777 0.336833 -6.105260 13.108720 24.004655 23.680115 0.000000 0.000000 0.000000 0.365462 0.003459 -0.136021 0.474940 0.001405 1.401565 -8.208370 -20.265108 25.195294 0.000000 0.000000 0.000000 0.629427 -0.134663 2.705883 2.932464 -0.020956 -25.945721 -1.906702 -0.154355 27.414777 0.316579 1.119375 -23.720739 0.000000 0.000000 0.000000 -9.400787 4.308899 -2.246655 -15.831873 -18.352055 -1.308175 17.606625 -11.111842 -1.146869 0.000000 0.000000 0.000000 1.026956 -2.302725 -0.888083 21.067320 13.158606 -1.453617 -17.495461 16.678698 -1.703111 0.000000 0.000000 0.000000 
0.000363 0.964011 0.003405 -1.337540 -1.984263 1.159879 3.206370 0.219191 3.907117 -2.243980 0.317957 -4.423861 11.375970 21.974763 20.693708 0.000000 0.000000 0.000000 -0.258444 0.041760 -0.357171 1.007966 -0.042041 1.897488 -7.510633 -19.420599 24.554041 0.000000 0.000000 0.000000 0.874546 -0.151731 2.878697 2.769882 0.053265 -26.866391 -2.079084 0.805011 28.937806 1.461779 0.500650 -24.088723 0.000000 0.000000 0.000000 -11.131455 4.771907 -2.641919 -18.588005 -18.454508 -1.361318 15.543044 -12.771816 -1.110622 0.000000 0.000000 0.000000 2.934492 -2.665359 -1.148283 25.204848 12.670977 -1.717654 -16.270622 18.196050 -1.651395 0.000000 0.000000 0.000000 
0.000439 0.964512 0.004482 -1.302937 -1.786724 1.174210 3.244718 0.213665 3.882679 -2.637927 0.342238 -4.071553 11.447354 22.111371 19.961153 0.000000 0.000000 0.000000 -0.273321 -0.003781 0.116788 1.033409 -0.068274 1.185367 -7.626486 -19.556131 24.765333 0.000000 0.000000 0.000000 0.411995 -0.120036 2.555122 3.395757 -0.069003 -26.997398 -2.541094 -0.143389 29.798782 0.897140 0.755293 -25.220405 0.000000 0.000000 0.000000 -14.157469 5.808693 -3.302946 -22.893102 -17.769792 -1.570575 14.891644 -14.741014 -1.138140 0.000000 0.000000 0.000000 4.815544 -1.713504 -0.943878 29.175936 12.249845 -1.971223 -13.692102 18.567699 -1.331381 0.000000 0.000000 0.000000 
0.000313 0.964588 0.004981 -1.252868 -2.199252 1.044954 3.417942 0.220594 4.017142 -2.960176 0.365783 -3.578032 11.120679 21.681285 19.318837 0.000000 0.000000 0.000000 -0.279661 -0.010354 0.188248 0.663776 -0.027297 1.148260 -7.138433 -18.959850 25.075213 0.000000 0.000000 0.000000 -0.145967 -0.106920 2.711495 4.118771 -0.263621 -26.473686 -2.607477 0.236142 29.095000 1.659223 0.247646 -24.048312 0.000000 0.000000 0.000000 -16.498974 5.357612 -3.353970 -25.717079 -15.582395 -1.913404 11.970269 -15.957013 -0.859328 0.000000 0.000000 0.000000 7.486920 -0.811734 -0.766815 32.836103 10.253074 -2.500790 -10.599846 20.316903 -0.972062 0.000000 0.000000 0.000000 
0.000139 0.964203 0.004708 -1.069678 -2.144839 1.243452 3.217075 0.184774 3.367453 -2.979846 0.362439 -3.035082 11.371907 22.002318 19.551393 0.000000 0.000000 0.000000 -0.791656 0.034787 -0.124957 0.800508 -0.032579 1.441949 -6.255165 -17.725856 24.643916 0.000000 0.000000 0.000000 -0.324486 -0.094712 2.568374 4.100110 -0.281835 -26.102499 -2.742320 -0.255984 29.215133 2.301419 -0.136071 -25.275076 0.000000 0.000000 0.000000 -18.275076 5.581398 -3.565182 -30.079084 -13.684257 -2.461491 9.671249 -18.009933 -0.586020 0.000000 0.000000 0.000000 9.427437 -0.286404 -0.732225 37.293414 9.603858 -2.899362 -7.193173 21.653832 -0.457910 0.000000 0.000000 0.000000 
-0.000151 0.963561 0.003566 -1.085124 -2.362311 1.311237 3.386888 0.165784 3.148370 -3.220076 0.384572 -2.957251 11.566005 22.231658 19.725977 0.000000 0.000000 0.000000 -0.553851 0.063057 -0.496962 0.322679 0.031451 1.684056 -6.141432 -17.612312 24.739901 0.000000 0.000000 0.000000 -0.445804 -0.112222 3.163218 4.437146 -0.363247 -26.028096 -2.677404 0.038149 28.973122 2.884950 -0.444708 -25.392353 0.000000 0.000000 0.000000 -21.161344 5.252466 -3.738720 -34.034958 -11.419840 -3.176910 6.870222 -19.586385 -0.160721 0.000000 0.000000 0.000000 12.068314 0.410511 -0.590608 41.737851 7.809602 -3.695164 -4.794112 23.365243 -0.007737 0.000000 0.000000 0.000000 
-0.000381 0.963141 0.001832 -1.029773 -2.634408 1.569302 3.314209 0.116009 2.331988 -3.224448 0.382713 -2.291506 11.921718 22.654723 20.024324 0.000000 0.000000 0.000000 -0.662858 0.148504 -1.377489 0.229596 0.073285 2.455003 -5.783615 -17.161048 24.647580 0.000000 0.000000 0.000000 -0.451463 -0.123787 3.499624 4.421225 -0.378994 -25.778195 -2.776774 0.121363 29.192177 3.555969 -0.788119 -26.261582 0.000000 0.000000 0.000000 -23.051056 4.970382 -3.742521 -38.522764 -9.647726 -3.998653 3.960991 -21.345740 0.395470 0.000000 0.000000 0.000000 14.088967 0.731016 -0.596554 46.717264 6.420417 -4.561798 -1.496374 25.111740 0.708575 0.000000 0.000000 0.000000 
-0.000466 0.962844 -0.000102 -1.008326 -2.422792 1.780731 3.497070 0.052289 1.465444 -3.482120 0.403350 -1.610057 11.965939 22.711789 20.218141 0.000000 0.000000 0.000000 -0.600767 0.184527 -1.770247 0.111566 0.097428 2.700994 -5.779100 -17.095556 24.258365 0.000000 0.000000 0.000000 -0.566867 -0.135373 3.984627 4.344446 -0.358359 -25.766107 -2.493195 0.231545 29.070903 3.587481 -0.684368 -27.081284 0.000000 0.000000 0.000000 -25.197191 4.736150 -3.939668 -42.336018 -8.799838 -4.521484 1.236984 -22.298459 0.960810 0.000000 0.000000 0.000000 15.869294 0.742250 -0.678224 51.266468 4.431303 -5.706548 1.050286 25.902427 1.335301 0.000000 0.000000 0.000000 
-0.000553 0.962508 -0.001773 -1.026160 -2.376517 1.855237 3.339822 0.026644 1.023014 -3.288742 0.382147 -1.354795 12.410573 23.264511 20.530099 0.000000 0.000000 0.000000 -0.575764 0.223632 -2.186520 0.013234 0.125152 3.071472 -5.655631 -16.924329 24.335731 0.000000 0.000000 0.000000 -0.651124 -0.139843 4.238765 4.325844 -0.396642 -25.129217 -2.374136 0.296889 28.640699 3.985101 -0.844815 -27.477791 0.000000 0.000000 0.000000 -26.545557 4.342145 -3.913813 -45.209623 -8.257584 -4.869823 -1.202143 -23.539235 1.536807 0.000000 0.000000 0.000000 16.677963 0.952890 -0.617871 54.758722 3.151696 -6.538240 4.678327 26.893482 2.236335 0.000000 0.000000 0.000000 
-0.000542 0.962201 -0.002912 -1.013693 -2.302862 1.816164 3.340986 0.012439 0.804105 -3.106657 0.361317 -1.098058 12.160648 22.945340 20.597829 0.000000 0.000000 0.000000 -0.464874 0.220720 -2.170893 -0.169559 0.153637 3.192005 -5.621880 -16.820302 23.753056 0.000000 0.000000 0.000000 -0.744518 -0.144139 4.509404 4.202367 -0.362381 -25.207569 -2.309243 0.088700 28.551770 3.875719 -0.796919 -27.606390 0.000000 0.000000 0.000000 -27.213787 3.919970 -3.658422 -46.819327 -7.898820 -5.149716 -3.282714 -25.139284 2.140241 0.000000 0.000000 0.000000 17.126883 1.553927 -0.370977 56.463999 2.857671 -6.838656 6.965285 26.963783 2.760581 0.000000 0.000000 0.000000 
-0.000603 0.962046 -0.003624 -0.865403 -2.268849 1.752771 3.084516 0.017782 0.812027 -2.985866 0.350369 -1.354929 12.507948 23.345999 21.264182 0.000000 0.000000 0.000000 -0.814934 0.212023 -2.030966 0.242577 0.098769 3.153468 -5.648727 -16.807181 23.189589 0.000000 0.000000 0.000000 -1.027395 -0.127879 4.480655 4.378147 -0.415322 -25.031128 -2.275194 0.399604 28.537166 4.236630 -0.906738 -27.950930 0.000000 0.000000 0.000000 -27.332115 3.141062 -3.287213 -47.206201 -8.479836 -4.925749 -4.033807 -26.482819 2.427241 0.000000 0.000000 0.000000 17.341546 1.797070 -0.181296 56.993079 3.040674 -6.798811 9.922560 30.642517 4.025768 0.000000 0.000000 0.000000 
-0.000634 0.962216 -0.004341 -0.675700 -2.219721 1.385968 2.775279 0.067293 1.419674 -2.703896 0.326460 -1.850971 12.300132 23.079686 21.449708 0.000000 0.000000 0.000000 -0.963605 0.183010 -1.699659 0.066506 0.122570 3.184278 -5.521420 -16.621613 23.233567 0.000000 0.000000 0.000000 -1.322989 -0.114877 4.547578 4.645876 -0.502274 -24.686226 -2.457411 0.404056 28.295083 3.698725 -0.625464 -27.585517 0.000000 0.000000 0.000000 -27.198571 2.804084 -3.069571 -45.854667 -8.961351 -4.634911 -4.669165 -29.422906 2.880396 0.000000 0.000000 0.000000 16.984978 2.429189 0.178090 56.073399 4.435687 -6.052863 11.397031 35.433388 5.244306 0.000000 0.000000 0.000000 
-0.000709 0.962114 -0.005361 -0.581232 -2.191844 1.154828 2.832890 0.085827 1.687878 -2.740049 0.331162 -1.956611 11.833146 22.500977 21.356149 0.000000 0.000000 0.000000 -1.139691 0.156943 -1.383780 0.331671 0.084509 3.090753 -5.662786 -16.781610 22.781784 0.000000 0.000000 0.000000 -1.514496 -0.103901 4.486303 4.496977 -0.472071 -24.629756 -2.308043 0.425874 28.391582 3.756550 -0.684638 -27.252290 0.000000 0.000000 0.000000 -26.607526 2.244861 -2.651422 -44.315150 -9.678498 -4.285649 -3.798856 -33.916726 3.107137 0.000000 0.000000 0.000000 16.950161 3.279777 0.636579 53.695950 7.190684 -4.661351 11.308323 42.238488 6.422441 0.000000 0.000000 0.000000 
-0.000905 0.962673 -0.006668 -0.547891 -2.277217 1.021756 2.543317 0.109172 1.897091 -2.466618 0.308796 -2.260068 12.194107 22.930799 21.695580 0.000000 0.000000 0.000000 -1.531755 0.159340 -1.331912 0.714203 0.035139 3.077393 -5.096113 -15.996994 22.982161 0.000000 0.000000 0.000000 -1.523117 -0.093947 4.109603 4.848191 -0.578904 -24.321284 -2.652081 0.709070 28.282267 3.792560 -0.705375 -26.823245 0.000000 0.000000 0.000000 -25.702818 2.537851 -2.825400 -42.475539 -10.760984 -3.780929 -1.047568 -40.785868 2.809562 0.000000 0.000000 0.000000 16.415444 3.792890 0.972833 51.124454 11.293966 -2.817065 11.203497 53.993972 8.676605 0.000000 0.000000 0.000000 
